<?xml version="1.0" encoding="UTF-8"?>
<svg width="19px" height="18px" viewBox="0 0 19 18" version="1.1" xmlns="http://www.w3.org/2000/svg" xmlns:xlink="http://www.w3.org/1999/xlink">
    <!-- Generator: Sketch 52.2 (67145) - http://www.bohemiancoding.com/sketch -->
    <title>形状</title>
    <desc>Created with Sketch.</desc>
    <g id="后台页面设计" stroke="none" stroke-width="1" fill="none" fill-rule="evenodd">
        <g id="新增版本（灰度）--ios" transform="translate(-34.000000, -116.000000)" fill="#FFFFFF" fill-rule="nonzero">
            <path d="M50.8889223,118.250187 L47.1943771,118.250187 L47.1943771,117.125085 L47.1943771,117.125105 C47.1936517,116.504057 46.7214569,116.000788 46.1387442,116 L40.8611076,116 C40.2783949,116.000775 39.8061905,116.504036 39.8054549,117.125084 L39.8054549,118.250186 L36.1110911,118.250186 C34.9456458,118.251417 34.0011546,119.258044 34,120.500162 L34,131.750022 L34,131.749989 C34.001138,132.992107 34.9456161,133.998752 36.111058,134 L50.8888925,134 C52.0543443,133.998779 52.9988454,132.992149 53,131.750025 L53,120.500165 L53,120.500197 C52.9988619,119.258072 52.054374,118.251434 50.8889255,118.250186 L50.8889223,118.250187 Z M41,117 L46,117 L46,118 L41,118 L41,117 Z M36.0624108,120.000016 L50.9374066,120.000016 C51.5239572,120.000705 51.9992679,120.448059 52,121.00011 L52,124 L35,124 L35,121.00011 L35,121.000145 C35.0007015,120.448162 35.4758768,120.000813 36.062356,120 L36.0624108,120.000016 Z M45,125 C44.7794377,125.580636 44.1944682,126 43.5,126 C42.8055318,126 42.2205456,125.580651 42,125 L45,125 Z M50.9376038,132.999999 L36.0625955,132.999999 C35.4760438,132.999212 35.0007321,132.487954 35,131.857043 L35,125 L40.8975584,125 C41.1444597,126.302369 42.2171822,127.285681 43.500083,127.285681 C44.7829838,127.285681 45.8557229,126.302369 46.1026242,125 L52,125 L52,131.857043 L52,131.85704 C51.9992699,132.487867 51.5240808,132.999093 50.9376071,133 L50.9376038,132.999999 Z" id="形状"></path>
        </g>
    </g>
</svg>